<svg width="167" height="176" viewBox="0 0 167 176" fill="none" xmlns="http://www.w3.org/2000/svg">
<path d="M23.312 151.168C23.312 151.72 23.276 152.272 23.204 152.824H9.848C9.92 153.928 10.22 154.756 10.748 155.308C11.3 155.836 11.996 156.1 12.836 156.1C14.012 156.1 14.852 155.572 15.356 154.516H22.88C22.568 155.908 21.956 157.156 21.044 158.26C20.156 159.34 19.028 160.192 17.66 160.816C16.292 161.44 14.78 161.752 13.124 161.752C11.132 161.752 9.356 161.332 7.796 160.492C6.26 159.652 5.048 158.452 4.16 156.892C3.296 155.332 2.864 153.496 2.864 151.384C2.864 149.272 3.296 147.448 4.16 145.912C5.024 144.352 6.224 143.152 7.76 142.312C9.32 141.472 11.108 141.052 13.124 141.052C15.116 141.052 16.88 141.46 18.416 142.276C19.952 143.092 21.152 144.268 22.016 145.804C22.88 147.316 23.312 149.104 23.312 151.168ZM16.112 149.404C16.112 148.54 15.824 147.868 15.248 147.388C14.672 146.884 13.952 146.632 13.088 146.632C12.224 146.632 11.516 146.872 10.964 147.352C10.412 147.808 10.052 148.492 9.884 149.404H16.112ZM33.2556 144.112C33.8076 143.152 34.5876 142.408 35.5956 141.88C36.6036 141.328 37.7916 141.052 39.1596 141.052C40.7676 141.052 42.2196 141.472 43.5156 142.312C44.8356 143.152 45.8676 144.352 46.6116 145.912C47.3796 147.472 47.7636 149.296 47.7636 151.384C47.7636 153.472 47.3796 155.308 46.6116 156.892C45.8676 158.452 44.8356 159.652 43.5156 160.492C42.2196 161.332 40.7676 161.752 39.1596 161.752C37.7916 161.752 36.6036 161.488 35.5956 160.96C34.5876 160.408 33.8076 159.652 33.2556 158.692V161.5H26.1996V134.86H33.2556V144.112ZM40.5996 151.384C40.5996 150.064 40.2396 149.044 39.5196 148.324C38.8236 147.58 37.9596 147.208 36.9276 147.208C35.8956 147.208 35.0196 147.58 34.2996 148.324C33.6036 149.068 33.2556 150.088 33.2556 151.384C33.2556 152.704 33.6036 153.736 34.2996 154.48C35.0196 155.224 35.8956 155.596 36.9276 155.596C37.9596 155.596 38.8236 155.224 39.5196 154.48C40.2396 153.712 40.5996 152.68 40.5996 151.384ZM49.5163 151.384C49.5163 149.296 49.8883 147.472 50.6323 145.912C51.4003 144.352 52.4443 143.152 53.7643 142.312C55.0843 141.472 56.5483 141.052 58.1563 141.052C59.4523 141.052 60.6043 141.328 61.6123 141.88C62.6443 142.408 63.4483 143.14 64.0243 144.076V134.86H71.1163V161.5H64.0243V158.692C63.4723 159.628 62.6923 160.372 61.6843 160.924C60.6763 161.476 59.4883 161.752 58.1203 161.752C56.5123 161.752 55.0483 161.332 53.7283 160.492C52.4323 159.652 51.4003 158.452 50.6323 156.892C49.8883 155.308 49.5163 153.472 49.5163 151.384ZM64.0603 151.384C64.0603 150.088 63.7003 149.068 62.9803 148.324C62.2843 147.58 61.4203 147.208 60.3883 147.208C59.3323 147.208 58.4563 147.58 57.7603 148.324C57.0643 149.044 56.7163 150.064 56.7163 151.384C56.7163 152.68 57.0643 153.712 57.7603 154.48C58.4563 155.224 59.3323 155.596 60.3883 155.596C61.4203 155.596 62.2843 155.224 62.9803 154.48C63.7003 153.736 64.0603 152.704 64.0603 151.384ZM89.0837 144.112C89.6357 143.152 90.4157 142.408 91.4237 141.88C92.4317 141.328 93.6197 141.052 94.9877 141.052C96.5957 141.052 98.0477 141.472 99.3437 142.312C100.664 143.152 101.696 144.352 102.44 145.912C103.208 147.472 103.592 149.296 103.592 151.384C103.592 153.472 103.208 155.308 102.44 156.892C101.696 158.452 100.664 159.652 99.3437 160.492C98.0477 161.332 96.5957 161.752 94.9877 161.752C93.6197 161.752 92.4317 161.488 91.4237 160.96C90.4157 160.408 89.6357 159.652 89.0837 158.692V161.5H82.0277V134.86H89.0837V144.112ZM96.4277 151.384C96.4277 150.064 96.0677 149.044 95.3477 148.324C94.6517 147.58 93.7877 147.208 92.7557 147.208C91.7237 147.208 90.8477 147.58 90.1277 148.324C89.4317 149.068 89.0837 150.088 89.0837 151.384C89.0837 152.704 89.4317 153.736 90.1277 154.48C90.8477 155.224 91.7237 155.596 92.7557 155.596C93.7877 155.596 94.6517 155.224 95.3477 154.48C96.0677 153.712 96.4277 152.68 96.4277 151.384ZM119.708 141.124C122.036 141.124 123.884 141.904 125.252 143.464C126.62 145 127.304 147.088 127.304 149.728V161.5H120.248V150.664C120.248 149.512 119.948 148.612 119.348 147.964C118.748 147.292 117.944 146.956 116.936 146.956C115.88 146.956 115.052 147.292 114.452 147.964C113.852 148.612 113.552 149.512 113.552 150.664V161.5H106.496V141.304H113.552V144.184C114.176 143.272 115.016 142.54 116.072 141.988C117.128 141.412 118.34 141.124 119.708 141.124ZM150.677 144.112C151.229 143.152 152.009 142.408 153.017 141.88C154.025 141.328 155.213 141.052 156.581 141.052C158.189 141.052 159.641 141.472 160.937 142.312C162.257 143.152 163.289 144.352 164.033 145.912C164.801 147.472 165.185 149.296 165.185 151.384C165.185 153.472 164.801 155.308 164.033 156.892C163.289 158.452 162.257 159.652 160.937 160.492C159.641 161.332 158.189 161.752 156.581 161.752C155.213 161.752 154.025 161.488 153.017 160.96C152.009 160.408 151.229 159.652 150.677 158.692V161.5H143.621V134.86H150.677V144.112ZM158.021 151.384C158.021 150.064 157.661 149.044 156.941 148.324C156.245 147.58 155.381 147.208 154.349 147.208C153.317 147.208 152.441 147.58 151.721 148.324C151.025 149.068 150.677 150.088 150.677 151.384C150.677 152.704 151.025 153.736 151.721 154.48C152.441 155.224 153.317 155.596 154.349 155.596C155.381 155.596 156.245 155.224 156.941 154.48C157.661 153.712 158.021 152.68 158.021 151.384Z" fill="#49ABA8"/>
<path d="M132.904 136.12H140.032L135.892 146.272H131.176L132.904 136.12Z" fill="#C98582"/>
<path d="M21.312 149.168C21.312 149.72 21.276 150.272 21.204 150.824H7.848C7.92 151.928 8.22 152.756 8.748 153.308C9.3 153.836 9.996 154.1 10.836 154.1C12.012 154.1 12.852 153.572 13.356 152.516H20.88C20.568 153.908 19.956 155.156 19.044 156.26C18.156 157.34 17.028 158.192 15.66 158.816C14.292 159.44 12.78 159.752 11.124 159.752C9.132 159.752 7.356 159.332 5.796 158.492C4.26 157.652 3.048 156.452 2.16 154.892C1.296 153.332 0.864 151.496 0.864 149.384C0.864 147.272 1.296 145.448 2.16 143.912C3.024 142.352 4.224 141.152 5.76 140.312C7.32 139.472 9.108 139.052 11.124 139.052C13.116 139.052 14.88 139.46 16.416 140.276C17.952 141.092 19.152 142.268 20.016 143.804C20.88 145.316 21.312 147.104 21.312 149.168ZM14.112 147.404C14.112 146.54 13.824 145.868 13.248 145.388C12.672 144.884 11.952 144.632 11.088 144.632C10.224 144.632 9.516 144.872 8.964 145.352C8.412 145.808 8.052 146.492 7.884 147.404H14.112ZM31.2556 142.112C31.8076 141.152 32.5876 140.408 33.5956 139.88C34.6036 139.328 35.7916 139.052 37.1596 139.052C38.7676 139.052 40.2196 139.472 41.5156 140.312C42.8356 141.152 43.8676 142.352 44.6116 143.912C45.3796 145.472 45.7636 147.296 45.7636 149.384C45.7636 151.472 45.3796 153.308 44.6116 154.892C43.8676 156.452 42.8356 157.652 41.5156 158.492C40.2196 159.332 38.7676 159.752 37.1596 159.752C35.7916 159.752 34.6036 159.488 33.5956 158.96C32.5876 158.408 31.8076 157.652 31.2556 156.692V159.5H24.1996V132.86H31.2556V142.112ZM38.5996 149.384C38.5996 148.064 38.2396 147.044 37.5196 146.324C36.8236 145.58 35.9596 145.208 34.9276 145.208C33.8956 145.208 33.0196 145.58 32.2996 146.324C31.6036 147.068 31.2556 148.088 31.2556 149.384C31.2556 150.704 31.6036 151.736 32.2996 152.48C33.0196 153.224 33.8956 153.596 34.9276 153.596C35.9596 153.596 36.8236 153.224 37.5196 152.48C38.2396 151.712 38.5996 150.68 38.5996 149.384ZM47.5163 149.384C47.5163 147.296 47.8883 145.472 48.6323 143.912C49.4003 142.352 50.4443 141.152 51.7643 140.312C53.0843 139.472 54.5483 139.052 56.1563 139.052C57.4523 139.052 58.6043 139.328 59.6123 139.88C60.6443 140.408 61.4483 141.14 62.0243 142.076V132.86H69.1163V159.5H62.0243V156.692C61.4723 157.628 60.6923 158.372 59.6843 158.924C58.6763 159.476 57.4883 159.752 56.1203 159.752C54.5123 159.752 53.0483 159.332 51.7283 158.492C50.4323 157.652 49.4003 156.452 48.6323 154.892C47.8883 153.308 47.5163 151.472 47.5163 149.384ZM62.0603 149.384C62.0603 148.088 61.7003 147.068 60.9803 146.324C60.2843 145.58 59.4203 145.208 58.3883 145.208C57.3323 145.208 56.4563 145.58 55.7603 146.324C55.0643 147.044 54.7163 148.064 54.7163 149.384C54.7163 150.68 55.0643 151.712 55.7603 152.48C56.4563 153.224 57.3323 153.596 58.3883 153.596C59.4203 153.596 60.2843 153.224 60.9803 152.48C61.7003 151.736 62.0603 150.704 62.0603 149.384ZM87.0837 142.112C87.6357 141.152 88.4157 140.408 89.4237 139.88C90.4317 139.328 91.6197 139.052 92.9877 139.052C94.5957 139.052 96.0477 139.472 97.3437 140.312C98.6637 141.152 99.6957 142.352 100.44 143.912C101.208 145.472 101.592 147.296 101.592 149.384C101.592 151.472 101.208 153.308 100.44 154.892C99.6957 156.452 98.6637 157.652 97.3437 158.492C96.0477 159.332 94.5957 159.752 92.9877 159.752C91.6197 159.752 90.4317 159.488 89.4237 158.96C88.4157 158.408 87.6357 157.652 87.0837 156.692V159.5H80.0277V132.86H87.0837V142.112ZM94.4277 149.384C94.4277 148.064 94.0677 147.044 93.3477 146.324C92.6517 145.58 91.7877 145.208 90.7557 145.208C89.7237 145.208 88.8477 145.58 88.1277 146.324C87.4317 147.068 87.0837 148.088 87.0837 149.384C87.0837 150.704 87.4317 151.736 88.1277 152.48C88.8477 153.224 89.7237 153.596 90.7557 153.596C91.7877 153.596 92.6517 153.224 93.3477 152.48C94.0677 151.712 94.4277 150.68 94.4277 149.384ZM117.708 139.124C120.036 139.124 121.884 139.904 123.252 141.464C124.62 143 125.304 145.088 125.304 147.728V159.5H118.248V148.664C118.248 147.512 117.948 146.612 117.348 145.964C116.748 145.292 115.944 144.956 114.936 144.956C113.88 144.956 113.052 145.292 112.452 145.964C111.852 146.612 111.552 147.512 111.552 148.664V159.5H104.496V139.304H111.552V142.184C112.176 141.272 113.016 140.54 114.072 139.988C115.128 139.412 116.34 139.124 117.708 139.124ZM148.677 142.112C149.229 141.152 150.009 140.408 151.017 139.88C152.025 139.328 153.213 139.052 154.581 139.052C156.189 139.052 157.641 139.472 158.937 140.312C160.257 141.152 161.289 142.352 162.033 143.912C162.801 145.472 163.185 147.296 163.185 149.384C163.185 151.472 162.801 153.308 162.033 154.892C161.289 156.452 160.257 157.652 158.937 158.492C157.641 159.332 156.189 159.752 154.581 159.752C153.213 159.752 152.025 159.488 151.017 158.96C150.009 158.408 149.229 157.652 148.677 156.692V159.5H141.621V132.86H148.677V142.112ZM156.021 149.384C156.021 148.064 155.661 147.044 154.941 146.324C154.245 145.58 153.381 145.208 152.349 145.208C151.317 145.208 150.441 145.58 149.721 146.324C149.025 147.068 148.677 148.088 148.677 149.384C148.677 150.704 149.025 151.736 149.721 152.48C150.441 153.224 151.317 153.596 152.349 153.596C153.381 153.596 154.245 153.224 154.941 152.48C155.661 151.712 156.021 150.68 156.021 149.384Z" fill="#5BF0EB"/>
<path d="M130.904 134.12H138.032L133.892 144.272H129.176L130.904 134.12Z" fill="#F0625B"/>
<path d="M50.7749 5.08681C65.4015 5.40478 76.7843 13.9586 83.0146 20.8023C85.6398 20.6181 88.3203 20.5926 90.9744 20.7267C96.3325 14.9276 105.909 5.90568 114.275 5.0868C125.405 3.99736 137.275 17.0869 137.275 17.0869C152.775 36.087 97.2751 126.587 86.7749 119.587C74.2749 125.087 52.7749 65.0868 37.2749 43.0868C34.1083 30.2535 32.3749 4.68681 50.7749 5.08681Z" fill="#49ABA8"/>
<path d="M86.7749 25.5868C82.4416 18.9201 69.1749 5.48681 50.7749 5.08681C32.3749 4.68681 34.1083 30.2535 37.2749 43.0868C52.7749 65.0868 74.2749 125.087 86.7749 119.587C97.2751 126.587 152.775 36.087 137.275 17.0869C137.275 17.0869 125.405 3.99736 114.275 5.0868C101.859 6.30216 86.7749 25.5868 86.7749 25.5868ZM86.7749 25.5868C86.7749 25.5868 82.6946 51.8433 70.7751 51.587C60.2262 51.3601 60.6884 48.3587 58.2751 38.087C52.8712 15.0865 121.043 14.5693 118.775 38.087C117.878 47.394 111.878 49.4508 102.775 51.587C91.1681 54.3108 86.7749 25.5868 86.7749 25.5868Z" stroke="#C98582" stroke-width="9"/>
<path d="M117.214 4.56455C102.587 4.88252 91.2042 13.4363 84.9739 20.2801C82.3487 20.0959 79.6683 20.0704 77.0141 20.2045C71.656 14.4053 62.0791 5.38343 53.7134 4.56455C42.5837 3.47511 30.7135 16.5647 30.7135 16.5647C15.2134 35.5647 70.7134 126.065 81.2136 119.065C93.7136 124.565 115.214 64.5646 130.714 42.5645C133.88 29.7312 135.614 4.16455 117.214 4.56455Z" fill="#5BF0EB"/>
<path d="M81.2136 25.0645C85.5469 18.3979 98.8136 4.96455 117.214 4.56455C135.614 4.16455 133.88 29.7312 130.714 42.5645C115.214 64.5646 93.7136 124.565 81.2136 119.065C70.7134 126.065 15.2134 35.5647 30.7135 16.5647C30.7135 16.5647 42.5837 3.47512 53.7134 4.56455C66.1295 5.77991 81.2136 25.0645 81.2136 25.0645ZM81.2136 25.0645C81.2136 25.0645 85.294 51.3211 97.2134 51.0647C107.762 50.8379 107.3 47.8364 109.713 37.5647C115.117 14.5643 46.9459 14.0471 49.2134 37.5647C50.1108 46.8717 56.1105 48.9285 65.2134 51.0647C76.8204 53.7886 81.2136 25.0645 81.2136 25.0645Z" stroke="#F0625B" stroke-width="9"/>
</svg>
